<svg width="254" height="212" viewBox="0 0 254 212" fill="none" xmlns="http://www.w3.org/2000/svg">
<g clip-path="url(#clip0_594_2)">
<path d="M11.8025 202.014C15.3257 208.547 22.8033 211.351 22.8033 211.351C22.8033 211.351 24.5686 203.563 21.0453 197.031C17.5221 190.498 10.0445 187.693 10.0445 187.693C10.0445 187.693 8.27926 195.481 11.8025 202.014Z" fill="#2F2E41"/>
<path d="M14.2241 199.864C20.585 203.691 23.0348 211.291 23.0348 211.291C23.0348 211.291 15.1716 212.687 8.81067 208.861C2.44978 205.035 0 197.435 0 197.435C0 197.435 7.86326 196.038 14.2241 199.864Z" fill="#F95306"/>
<path d="M156.836 10.1775H117.149V10.7443H156.836V10.1775Z" fill="#F2F2F2"/>
<path d="M146.064 10.6026H145.497V15.8461H146.064V10.6026Z" fill="#F2F2F2"/>
<path d="M128.771 10.6026H128.204V15.8461H128.771V10.6026Z" fill="#F2F2F2"/>
<path d="M176.963 37.3871H137.276V37.9539H176.963V37.3871Z" fill="#F2F2F2"/>
<path d="M148.615 32.2853H148.048V37.5288H148.615V32.2853Z" fill="#F2F2F2"/>
<path d="M165.908 32.2853H165.341V37.5288H165.908V32.2853Z" fill="#F2F2F2"/>
<path d="M229.691 50.1416H190.003V50.7084H229.691V50.1416Z" fill="#F2F2F2"/>
<path d="M201.343 45.0398H200.776V50.2833H201.343V45.0398Z" fill="#F2F2F2"/>
<path d="M218.635 45.0398H218.068V50.2833H218.635V45.0398Z" fill="#F2F2F2"/>
<path d="M225.722 181.655H186.035V182.221H225.722V181.655Z" fill="#F2F2F2"/>
<path d="M197.374 176.553H196.807V181.796H197.374V176.553Z" fill="#F2F2F2"/>
<path d="M214.666 176.553H214.099V181.796H214.666V176.553Z" fill="#F2F2F2"/>
<path d="M157.97 90.6725H118.282V91.2394H157.97V90.6725Z" fill="#F2F2F2"/>
<path d="M129.622 85.5707H129.055V90.8142H129.622V85.5707Z" fill="#F2F2F2"/>
<path d="M146.914 85.5707H146.347V90.8142H146.914V85.5707Z" fill="#F2F2F2"/>
<path d="M170.443 158.98H130.756V159.547H170.443V158.98Z" fill="#F2F2F2"/>
<path d="M142.095 153.878H141.528V159.122H142.095V153.878Z" fill="#F2F2F2"/>
<path d="M159.387 153.878H158.82V159.122H159.387V153.878Z" fill="#F2F2F2"/>
<path d="M233.943 138.289H194.256V138.856H233.943V138.289Z" fill="#F2F2F2"/>
<path d="M205.595 133.188H205.028V138.431H205.595V133.188Z" fill="#F2F2F2"/>
<path d="M222.887 133.188H222.32V138.431H222.887V133.188Z" fill="#F2F2F2"/>
<path d="M102.638 199.022H35.5129V198.54H102.154V175.122H41.1559L38.1927 168.95L38.6281 168.741L41.4598 174.639H102.638V199.022Z" fill="#2F2E41"/>
<path d="M44.4468 210.852C47.2472 210.852 49.5174 208.582 49.5174 205.782C49.5174 202.982 47.2472 200.712 44.4468 200.712C41.6464 200.712 39.3762 202.982 39.3762 205.782C39.3762 208.582 41.6464 210.852 44.4468 210.852Z" fill="#3F3D56"/>
<path d="M94.428 210.852C97.2284 210.852 99.4986 208.582 99.4986 205.782C99.4986 202.982 97.2284 200.712 94.428 200.712C91.6276 200.712 89.3574 202.982 89.3574 205.782C89.3574 208.582 91.6276 210.852 94.428 210.852Z" fill="#3F3D56"/>
<path d="M153.343 101.25C155.077 101.25 156.482 99.8446 156.482 98.1113C156.482 96.378 155.077 94.9729 153.343 94.9729C151.61 94.9729 150.204 96.378 150.204 98.1113C150.204 99.8446 151.61 101.25 153.343 101.25Z" fill="#3F3D56"/>
<path d="M109.817 167.156H34.3685L18.0432 113.803H126.629L126.531 114.117L109.817 167.156ZM34.7257 166.673H109.463L125.971 114.286H18.6959L34.7257 166.673Z" fill="#2F2E41"/>
<path d="M103.927 164.379H37.6583L23.3192 117.062H118.694L118.607 117.341L103.927 164.379Z" fill="#F2F2F2"/>
<path d="M127.982 109.037L127.515 108.913L130.702 96.9041H149.239V97.3871H131.074L127.982 109.037Z" fill="#2F2E41"/>
<path d="M121.203 129.978H23.3188V130.461H121.203V129.978Z" fill="#2F2E41"/>
<path d="M115.598 147.766H28.7618V148.249H115.598V147.766Z" fill="#2F2E41"/>
<path d="M72.5763 114.045H72.0934V166.914H72.5763V114.045Z" fill="#2F2E41"/>
<path d="M94.1971 114.029L90.7306 166.898L91.2126 166.929L94.6791 114.061L94.1971 114.029Z" fill="#2F2E41"/>
<path d="M50.4827 114.029L50.0007 114.06L53.4471 166.93L53.9291 166.899L50.4827 114.029Z" fill="#2F2E41"/>
<path d="M254 211.158H0V211.725H254V211.158Z" fill="#2F2E41"/>
<path d="M168.788 17.5377C168.788 17.5377 172.932 29.3303 170.382 31.1446C167.832 32.9588 178.989 47.7751 178.989 47.7751L192.378 44.1467L185.046 31.7493C185.046 31.7493 184.089 19.3519 184.089 17.5377C184.089 15.7235 168.788 17.5377 168.788 17.5377Z" fill="#A0616A"/>
<path opacity="0.1" d="M168.788 17.5377C168.788 17.5377 172.932 29.3303 170.382 31.1446C167.832 32.9588 178.989 47.7751 178.989 47.7751L192.378 44.1467L185.046 31.7493C185.046 31.7493 184.089 19.3519 184.089 17.5377C184.089 15.7235 168.788 17.5377 168.788 17.5377Z" fill="black"/>
<path d="M161.832 101.598C161.832 101.598 160.623 116.717 161.832 124.578C163.042 132.44 164.857 154.211 164.857 154.211C164.857 154.211 164.857 195.334 171.51 195.939C178.163 196.543 183.002 197.148 183.607 194.729C184.212 192.31 180.583 191.101 182.397 189.891C184.212 188.682 184.817 184.448 182.397 179.61C179.978 174.772 182.397 125.788 182.397 125.788L193.89 156.63C193.89 156.63 195.099 182.029 196.309 185.658C197.519 189.286 195.099 195.939 199.333 196.543C203.567 197.148 208.406 193.52 210.826 192.31C213.245 191.101 207.196 191.101 208.406 190.496C209.616 189.891 213.245 188.077 212.035 187.472C210.826 186.867 209.616 157.839 209.616 157.839C209.616 157.839 206.289 95.8527 202.055 93.4337C197.821 91.0147 195.099 95.1813 195.099 95.1813L161.832 101.598Z" fill="#2F2E41"/>
<path d="M172.72 193.52V198.358C172.72 198.358 167.276 211.509 172.72 211.509C178.164 211.509 182.397 212.872 182.397 211.057V194.729L172.72 193.52Z" fill="black"/>
<path d="M208.406 193.511V198.349C208.406 198.349 213.85 211.5 208.406 211.5C202.962 211.5 198.729 212.863 198.729 211.049V194.721L208.406 193.511Z" fill="black"/>
<path d="M177.256 26.3066C183.269 26.3066 188.144 21.433 188.144 15.4211C188.144 9.40921 183.269 4.53561 177.256 4.53561C171.243 4.53561 166.369 9.40921 166.369 15.4211C166.369 21.433 171.243 26.3066 177.256 26.3066Z" fill="#A0616A"/>
<path d="M173.93 35.6802C173.93 35.6802 176.954 44.7514 181.793 42.9372L186.631 41.1229L195.099 99.1788C195.099 99.1788 188.446 108.855 178.768 102.807C169.091 96.7598 173.93 35.6802 173.93 35.6802Z" fill="#F95306"/>
<path d="M182.397 33.8659L185.119 28.1208C185.119 28.1208 201.148 35.6802 203.567 38.0992C205.987 40.5182 205.987 44.1467 205.987 44.1467L201.753 59.2654C201.753 59.2654 202.962 92.5266 202.962 93.7361C202.962 94.9456 207.196 101.598 204.172 99.1788C201.148 96.7598 200.543 94.3408 198.124 97.9693C195.704 101.598 190.261 105.831 190.261 105.831L182.397 33.8659Z" fill="black"/>
<path d="M203.567 77.4079L201.753 94.3408C201.753 94.3408 190.865 104.017 193.285 104.622C195.704 105.226 196.914 102.807 196.914 102.807C196.914 102.807 201.148 107.041 203.567 104.622C205.987 102.203 212.035 79.2221 212.035 79.2221L203.567 77.4079Z" fill="#A0616A"/>
<path d="M177.488 0.0368098C175.075 -0.0494588 172.492 -0.0921328 170.457 1.2083C169.52 1.86093 168.699 2.66471 168.027 3.58674C166.045 6.09185 164.332 9.24386 165.068 12.352L165.923 12.0186C165.923 12.8483 165.739 13.6675 165.383 14.4172C165.504 14.0671 165.907 14.633 165.799 14.9871L164.857 18.0767C166.405 17.5092 168.332 18.6583 168.567 20.2903C168.675 16.7016 169.047 12.5866 171.959 10.4854C173.427 9.42569 175.285 9.1022 177.073 8.81494C178.723 8.54993 180.452 8.29723 182.032 8.84013C183.612 9.38303 184.957 10.9985 184.599 12.6299C185.327 12.379 186.142 12.8866 186.502 13.5677C186.862 14.2487 186.881 15.0521 186.892 15.8224C187.668 16.3711 188.552 15.2815 188.868 14.3851C189.611 12.2808 190.271 10.0408 189.871 7.8454C189.471 5.65004 187.682 3.55203 185.45 3.54458C185.721 3.24707 185.865 2.85587 185.853 2.45372L184.013 2.29832C184.48 2.2322 184.91 2.0058 185.228 1.65789C184.49 2.47047 178.683 0.0794977 177.488 0.0368098Z" fill="#2F2E41"/>
<path d="M176.954 32.0517C176.954 32.0517 172.03 27.2274 170.258 27.5229C168.486 27.8184 166.066 32.0517 166.066 32.0517C166.066 32.0517 151.55 36.8897 152.155 41.7277C152.76 46.5657 159.413 70.1509 159.413 70.1509C159.413 70.1509 164.857 98.5741 160.018 101.598C155.179 104.622 183.002 112.483 183.607 108.855C184.212 105.226 185.422 68.9414 183.607 63.4986C181.793 58.0559 176.954 32.0517 176.954 32.0517Z" fill="black"/>
<path d="M198.124 41.7277H205.603C205.603 41.7277 210.826 64.7081 211.43 67.1271C212.035 69.5461 213.245 81.0363 212.64 81.0363C212.035 81.0363 199.938 78.6173 199.938 80.4316L198.124 41.7277Z" fill="black"/>
<path d="M197.871 98.6348H169.239C166.445 85.7839 166.211 73.3677 169.239 61.505H197.871C193.25 73.1543 192.961 85.4855 197.871 98.6348Z" fill="#F2F2F2"/>
<path d="M157.599 82.8506L166.066 86.4791C166.066 86.4791 182.397 88.8981 182.397 82.2458C182.397 75.5936 166.066 79.2221 166.066 79.2221L160.622 77.4818L157.599 82.8506Z" fill="#A0616A"/>
<path d="M159.413 38.0992L152.155 39.9134L146.711 71.9651C146.711 71.9651 144.897 80.4316 147.921 81.0363C150.945 81.6411 159.413 86.4791 159.413 86.4791C159.413 86.4791 160.623 77.4079 163.042 77.4079L156.994 72.5699L160.623 51.4037L159.413 38.0992Z" fill="black"/>
<path d="M56.7668 100.026H17.0793V100.593H56.7668V100.026Z" fill="#F2F2F2"/>
<path d="M28.4186 94.924H27.8517V100.168H28.4186V94.924Z" fill="#F2F2F2"/>
<path d="M45.7111 94.924H45.1442V100.168H45.7111V94.924Z" fill="#F2F2F2"/>
<path d="M70.6575 16.1296H30.97V16.6964H70.6575V16.1296Z" fill="#F2F2F2"/>
<path d="M59.8852 16.5547H59.3182V21.7982H59.8852V16.5547Z" fill="#F2F2F2"/>
<path d="M42.5927 16.5547H42.0258V21.7982H42.5927V16.5547Z" fill="#F2F2F2"/>
<path d="M110.628 71.9659H70.9409V72.5328H110.628V71.9659Z" fill="#F2F2F2"/>
<path d="M99.8561 72.3911H99.2892V77.6346H99.8561V72.3911Z" fill="#F2F2F2"/>
<path d="M82.5638 72.3911H81.9968V77.6346H82.5638V72.3911Z" fill="#F2F2F2"/>
<path d="M43.1598 71.6825H3.47229V72.2494H43.1598V71.6825Z" fill="#F2F2F2"/>
<path d="M32.3874 72.1076H31.8204V77.3511H32.3874V72.1076Z" fill="#F2F2F2"/>
<path d="M15.095 72.1076H14.5281V77.3511H15.095V72.1076Z" fill="#F2F2F2"/>
<path d="M90.7848 43.3392H51.0973V43.906H90.7848V43.3392Z" fill="#F2F2F2"/>
<path d="M62.4365 38.2374H61.8695V43.4809H62.4365V38.2374Z" fill="#F2F2F2"/>
<path d="M79.729 38.2374H79.162V43.4809H79.729V38.2374Z" fill="#F2F2F2"/>
</g>
<defs>
<clipPath id="clip0_594_2">
<rect width="254" height="212" fill="white"/>
</clipPath>
</defs>
</svg>
