<svg width="225" height="236" viewBox="0 0 225 236" fill="none" xmlns="http://www.w3.org/2000/svg">
<g clip-path="url(#clip0_268_134)">
<path d="M225.001 56.0345H223.707V20.542C223.707 15.0939 221.542 9.86898 217.688 6.01661C213.835 2.16424 208.609 2.6796e-09 203.159 2.67958e-09H127.942C125.244 -4.35673e-05 122.572 0.531248 120.079 1.56354C117.586 2.59583 115.321 4.10891 113.413 6.01638C111.505 7.92384 109.991 10.1884 108.959 12.6806C107.926 15.1729 107.395 17.844 107.395 20.5417V215.256C107.395 220.705 109.559 225.929 113.413 229.782C117.266 233.634 122.492 235.798 127.942 235.798H203.158C208.608 235.798 213.834 233.634 217.688 229.782C221.541 225.929 223.706 220.705 223.706 215.256V81.2987H225L225.001 56.0345Z" fill="#3F3D56"/>
<path d="M219.515 19.1661V216.632C219.515 220.762 217.873 224.724 214.952 227.645C212.031 230.566 208.069 232.208 203.937 232.209H127.177C123.043 232.21 119.079 230.569 116.155 227.648C113.232 224.727 111.589 220.764 111.588 216.632V19.1661C111.589 15.034 113.232 11.0716 116.155 8.15036C119.079 5.22913 123.043 3.58834 127.176 3.58887H136.487C136.03 4.71293 135.856 5.93205 135.981 7.13909C136.105 8.34614 136.524 9.50414 137.201 10.5113C137.878 11.5185 138.792 12.344 139.863 12.9153C140.934 13.4866 142.129 13.7862 143.342 13.7877H187.105C188.318 13.7862 189.513 13.4866 190.584 12.9153C191.655 12.344 192.569 11.5185 193.246 10.5113C193.923 9.50414 194.342 8.34614 194.466 7.13909C194.591 5.93205 194.417 4.71293 193.96 3.58887H203.934C208.066 3.58957 212.028 5.23056 214.95 8.15107C217.871 11.0716 219.514 15.0325 219.515 19.1632V19.1661Z" fill="white"/>
<path d="M166.375 98.1646C157.635 98.1678 149.252 94.7003 143.07 88.5248C136.888 82.3493 133.412 73.9715 133.408 65.2343V65.2051C133.408 65.1361 133.408 65.0635 133.412 64.9945C133.512 46.9458 148.301 32.248 166.375 32.248C175.118 32.2476 183.503 35.7194 189.686 41.8999C195.869 48.0803 199.342 56.463 199.343 65.204C199.343 73.9449 195.871 82.3281 189.689 88.5092C183.506 94.6903 175.122 98.1631 166.378 98.1636H166.375V98.1646ZM166.375 32.9415C157.854 32.9605 149.686 36.3401 143.644 42.346C137.602 48.3519 134.174 56.4989 134.106 65.0167C134.103 65.0904 134.103 65.1494 134.103 65.2055C134.102 71.5875 135.994 77.8264 139.54 83.1333C143.086 88.4402 148.126 92.5767 154.024 95.0197C159.921 97.4627 166.411 98.1025 172.672 96.8582C178.933 95.6139 184.685 92.5414 189.199 88.0292C193.714 83.517 196.789 77.7678 198.035 71.5085C199.281 65.2493 198.643 58.7612 196.2 52.8647C193.758 46.9682 189.622 41.9281 184.314 38.3818C179.007 34.8355 172.767 32.9422 166.383 32.9415H166.375Z" fill="#E6E6E6"/>
<path d="M200.464 132.816H132.253C131.918 132.815 131.597 132.682 131.361 132.446C131.124 132.209 130.991 131.888 130.99 131.553V114.638C130.991 114.303 131.124 113.982 131.361 113.745C131.597 113.509 131.918 113.375 132.253 113.375H200.464C200.799 113.375 201.12 113.509 201.356 113.745C201.593 113.982 201.726 114.303 201.727 114.638V131.553C201.726 131.888 201.593 132.209 201.356 132.446C201.12 132.683 200.799 132.816 200.464 132.816V132.816ZM132.253 113.88C132.052 113.88 131.86 113.96 131.718 114.102C131.575 114.244 131.495 114.437 131.495 114.638V131.553C131.495 131.754 131.575 131.947 131.718 132.089C131.86 132.231 132.052 132.311 132.253 132.311H200.464C200.665 132.311 200.857 132.231 201 132.089C201.142 131.947 201.222 131.754 201.222 131.553V114.638C201.222 114.437 201.142 114.244 201 114.102C200.857 113.96 200.665 113.88 200.464 113.88H132.253Z" fill="#E6E6E6"/>
<path d="M153.349 119.56C153.115 119.56 152.89 119.653 152.724 119.818C152.558 119.984 152.465 120.209 152.465 120.444C152.465 120.678 152.558 120.903 152.724 121.069C152.89 121.234 153.115 121.328 153.349 121.328H195.033C195.149 121.332 195.265 121.314 195.374 121.273C195.483 121.233 195.583 121.172 195.668 121.093C195.753 121.014 195.822 120.919 195.87 120.813C195.919 120.708 195.946 120.594 195.951 120.478C195.955 120.362 195.937 120.246 195.896 120.137C195.856 120.028 195.795 119.928 195.716 119.843C195.637 119.758 195.542 119.689 195.436 119.641C195.331 119.592 195.217 119.565 195.101 119.561C195.088 119.56 195.075 119.56 195.062 119.56H153.349V119.56Z" fill="#E6E6E6"/>
<path d="M153.349 124.863C153.115 124.863 152.89 124.956 152.724 125.122C152.558 125.288 152.465 125.513 152.465 125.747C152.465 125.982 152.558 126.207 152.724 126.372C152.89 126.538 153.115 126.631 153.349 126.631H195.033C195.149 126.636 195.265 126.617 195.374 126.577C195.483 126.537 195.583 126.475 195.668 126.396C195.753 126.318 195.822 126.223 195.87 126.117C195.919 126.012 195.946 125.898 195.951 125.782C195.955 125.666 195.937 125.55 195.896 125.441C195.856 125.332 195.795 125.232 195.716 125.147C195.637 125.062 195.542 124.993 195.436 124.944C195.331 124.896 195.217 124.869 195.101 124.864C195.088 124.864 195.075 124.864 195.062 124.864L153.349 124.863Z" fill="#E6E6E6"/>
<path d="M200.464 161.103H132.253C131.918 161.103 131.597 160.969 131.361 160.733C131.124 160.496 130.991 160.175 130.99 159.84V142.925C130.991 142.59 131.124 142.269 131.361 142.032C131.597 141.796 131.918 141.663 132.253 141.662H200.464C200.799 141.663 201.12 141.796 201.356 142.032C201.593 142.269 201.726 142.59 201.727 142.925V159.841C201.726 160.175 201.593 160.496 201.356 160.733C201.119 160.969 200.799 161.102 200.464 161.103ZM132.253 142.167C132.052 142.167 131.86 142.247 131.718 142.389C131.575 142.531 131.495 142.724 131.495 142.925V159.841C131.495 160.041 131.575 160.234 131.718 160.376C131.86 160.518 132.052 160.598 132.253 160.598H200.464C200.665 160.598 200.857 160.518 201 160.376C201.142 160.234 201.222 160.041 201.222 159.841V142.925C201.222 142.724 201.142 142.531 201 142.389C200.857 142.247 200.665 142.167 200.464 142.167H132.253Z" fill="#E6E6E6"/>
<path d="M153.349 147.846C153.115 147.846 152.89 147.939 152.724 148.105C152.558 148.27 152.465 148.495 152.465 148.73C152.465 148.964 152.558 149.189 152.724 149.355C152.89 149.521 153.115 149.614 153.349 149.614H195.033C195.264 149.612 195.486 149.521 195.65 149.358C195.814 149.196 195.908 148.975 195.912 148.744C195.916 148.513 195.829 148.29 195.67 148.122C195.511 147.954 195.293 147.855 195.062 147.846L153.349 147.846Z" fill="#E6E6E6"/>
<path d="M153.349 153.15C153.115 153.15 152.89 153.244 152.724 153.409C152.558 153.575 152.465 153.8 152.465 154.034C152.465 154.269 152.558 154.494 152.724 154.66C152.89 154.825 153.115 154.918 153.349 154.918H195.033C195.264 154.917 195.486 154.825 195.65 154.663C195.814 154.5 195.908 154.28 195.912 154.049C195.916 153.818 195.829 153.594 195.67 153.426C195.511 153.259 195.293 153.16 195.062 153.151L153.349 153.15Z" fill="#E6E6E6"/>
<path d="M200.464 189.39H132.253C131.918 189.39 131.597 189.257 131.361 189.02C131.124 188.783 130.991 188.462 130.99 188.127V171.212C130.991 170.877 131.124 170.556 131.361 170.32C131.597 170.083 131.918 169.95 132.253 169.949H200.464C200.799 169.95 201.12 170.083 201.356 170.32C201.593 170.556 201.726 170.877 201.727 171.212V188.128C201.726 188.462 201.593 188.783 201.356 189.02C201.12 189.257 200.799 189.39 200.464 189.39V189.39ZM132.253 170.454C132.052 170.454 131.86 170.534 131.718 170.676C131.575 170.818 131.495 171.011 131.495 171.212V188.128C131.495 188.329 131.575 188.521 131.718 188.663C131.86 188.805 132.052 188.885 132.253 188.885H200.464C200.665 188.885 200.857 188.805 201 188.663C201.142 188.521 201.222 188.329 201.222 188.128V171.212C201.222 171.011 201.142 170.818 201 170.676C200.857 170.534 200.665 170.454 200.464 170.454H132.253Z" fill="#E6E6E6"/>
<path d="M153.349 176.133C153.115 176.133 152.89 176.226 152.724 176.392C152.558 176.558 152.465 176.782 152.465 177.017C152.465 177.251 152.558 177.476 152.724 177.642C152.89 177.808 153.115 177.901 153.349 177.901H195.033C195.149 177.905 195.265 177.887 195.374 177.847C195.483 177.806 195.583 177.745 195.668 177.666C195.753 177.587 195.822 177.492 195.87 177.387C195.919 177.281 195.946 177.167 195.951 177.051C195.955 176.935 195.937 176.819 195.896 176.71C195.856 176.602 195.795 176.502 195.716 176.416C195.637 176.331 195.542 176.262 195.436 176.214C195.331 176.165 195.217 176.138 195.101 176.134C195.088 176.133 195.075 176.133 195.062 176.133L153.349 176.133Z" fill="#E6E6E6"/>
<path d="M153.349 181.438C153.115 181.438 152.89 181.531 152.724 181.696C152.558 181.862 152.465 182.087 152.465 182.322C152.465 182.556 152.558 182.781 152.724 182.947C152.89 183.112 153.115 183.206 153.349 183.206H195.033C195.149 183.21 195.265 183.192 195.374 183.151C195.483 183.111 195.583 183.05 195.668 182.971C195.753 182.892 195.822 182.797 195.87 182.691C195.919 182.586 195.946 182.472 195.951 182.356C195.955 182.24 195.937 182.124 195.896 182.015C195.856 181.906 195.795 181.806 195.716 181.721C195.637 181.636 195.542 181.567 195.436 181.519C195.331 181.47 195.217 181.443 195.101 181.438C195.088 181.438 195.075 181.438 195.062 181.438L153.349 181.438Z" fill="#E6E6E6"/>
<path d="M176.792 64.4059H167.178V54.7939H165.575V64.4059H155.961V66.0077H165.575V75.6196H167.178V66.0077H176.792V64.4059Z" fill="#000002"/>
<path d="M29.1496 185.275C29.1496 185.275 21.2884 193.883 20.1653 213.718C19.0423 233.552 18.668 235.798 18.668 235.798H46.7437L51.9818 222.327L57.9727 235.797H84.5507C84.5507 235.797 87.5454 194.63 84.5507 193.507C81.556 192.385 29.1496 185.275 29.1496 185.275Z" fill="#2F2E41"/>
<path d="M66.7709 84.0436C74.2135 84.0436 80.247 78.0118 80.247 70.5711C80.247 63.1305 74.2135 57.0986 66.7709 57.0986C59.3283 57.0986 53.2949 63.1305 53.2949 70.5711C53.2949 78.0118 59.3283 84.0436 66.7709 84.0436Z" fill="#FFB8B8"/>
<path d="M124.981 185.652L104.392 148.227L92.4121 128.767L106.638 122.404L114.499 137.748C114.499 137.748 124.981 153.092 127.601 165.817C130.221 178.541 132.842 184.529 132.842 184.529L124.981 185.652Z" fill="#FFB8B8"/>
<path d="M11.5542 174.797L42.25 147.852L40.7543 126.146H32.1444L29.5227 137.373L4.81641 169.932L11.5542 174.797Z" fill="#FFB8B8"/>
<path d="M51.2346 90.5932C51.2346 90.5932 62.3521 95.2526 70.6434 89.5547C70.6434 89.5547 90.9143 92.8393 92.0374 93.9614C93.1604 95.0834 90.9143 128.765 90.9143 128.765L86.4229 147.852C86.4229 147.852 92.7867 177.043 83.4281 184.528L85.2998 194.632C85.2998 194.632 43.7484 197.626 27.2773 187.522L30.2714 177.416L38.1326 145.606L33.2662 101.446C33.2662 101.446 37.0083 91.3416 51.2346 90.5932Z" fill="#E4E4E4"/>
<path d="M82.4934 95.6451L92.2264 94.1494C92.2264 94.1494 97.0928 94.8979 101.585 104.254C106.077 113.61 110.944 125.96 110.944 125.96L94.0984 133.445L80.248 111.739L82.4934 95.6451Z" fill="#E4E4E4"/>
<path d="M35.5142 99.5752L33.2682 101.446C33.2682 101.446 30.2734 112.3 30.2734 119.784V129.889L43.7498 131.386L35.5142 99.5752Z" fill="#E4E4E4"/>
<path d="M53.2983 74.2272C53.2983 74.2272 51.4664 72.2494 51.6519 69.7737C51.7742 68.3654 51.6841 66.9467 51.3848 65.5651C51.3848 65.5651 51.9582 61.5131 52.8048 59.1641C53.6514 56.8152 52.9376 55.998 56.5768 54.7157C60.216 53.4334 57.8993 48.7964 68.6281 52.4928C69.0362 52.9047 69.5571 53.1866 70.1253 53.3028C70.6934 53.419 71.2832 53.3643 71.8203 53.1457C73.8012 52.4204 74.9949 55.141 74.9949 55.141C74.9949 55.141 76.2305 54.1274 76.9237 55.1811C77.617 56.2349 80.9702 53.8335 82.2004 61.4985C83.4306 69.1636 79.209 75.9992 79.209 75.9992C79.209 75.9992 78.6166 63.7334 71.6488 63.5107C64.6809 63.2881 56.8011 60.6498 55.8238 65.8149C54.8464 70.9801 53.2983 74.2272 53.2983 74.2272Z" fill="#2F2E41"/>
<path d="M6.64356 180.529C9.85103 180.529 12.4512 177.93 12.4512 174.723C12.4512 171.516 9.85103 168.917 6.64356 168.917C3.4361 168.917 0.835938 171.516 0.835938 174.723C0.835938 177.93 3.4361 180.529 6.64356 180.529Z" fill="#FFB8B8"/>
<path d="M129.269 192.473C132.201 192.473 134.579 190.097 134.579 187.165C134.579 184.233 132.201 181.856 129.269 181.856C126.336 181.856 123.959 184.233 123.959 187.165C123.959 190.097 126.336 192.473 129.269 192.473Z" fill="#FFB8B8"/>
<g clip-path="url(#clip1_268_134)">
<path d="M145.75 124.666V121.333C145.75 121.187 145.711 121.043 145.638 120.917C145.565 120.79 145.46 120.685 145.333 120.612L142.417 118.946C142.29 118.872 142.146 118.834 142 118.834C141.854 118.834 141.71 118.872 141.583 118.946L138.667 120.612C138.54 120.685 138.435 120.79 138.362 120.917C138.289 121.043 138.25 121.187 138.25 121.333V124.666C138.25 124.813 138.289 124.956 138.362 125.083C138.435 125.209 138.54 125.314 138.667 125.387L141.583 127.054C141.71 127.127 141.854 127.166 142 127.166C142.146 127.166 142.29 127.127 142.417 127.054L145.333 125.387C145.46 125.314 145.565 125.209 145.638 125.083C145.711 124.956 145.75 124.813 145.75 124.666Z" stroke="black" stroke-linecap="round" stroke-linejoin="round"/>
<path d="M138.363 120.9L142.001 123.005L145.638 120.9" stroke="black" stroke-linecap="round" stroke-linejoin="round"/>
<path d="M142 127.2V123" stroke="black" stroke-linecap="round" stroke-linejoin="round"/>
</g>
<g clip-path="url(#clip2_268_134)">
<path d="M145.75 152.666V149.333C145.75 149.187 145.711 149.043 145.638 148.917C145.565 148.79 145.46 148.685 145.333 148.612L142.417 146.946C142.29 146.872 142.146 146.834 142 146.834C141.854 146.834 141.71 146.872 141.583 146.946L138.667 148.612C138.54 148.685 138.435 148.79 138.362 148.917C138.289 149.043 138.25 149.187 138.25 149.333V152.666C138.25 152.813 138.289 152.956 138.362 153.083C138.435 153.209 138.54 153.314 138.667 153.387L141.583 155.054C141.71 155.127 141.854 155.166 142 155.166C142.146 155.166 142.29 155.127 142.417 155.054L145.333 153.387C145.46 153.314 145.565 153.209 145.638 153.083C145.711 152.956 145.75 152.813 145.75 152.666Z" stroke="black" stroke-linecap="round" stroke-linejoin="round"/>
<path d="M138.363 148.9L142.001 151.005L145.638 148.9" stroke="black" stroke-linecap="round" stroke-linejoin="round"/>
<path d="M142 155.2V151" stroke="black" stroke-linecap="round" stroke-linejoin="round"/>
</g>
<g clip-path="url(#clip3_268_134)">
<path d="M144.75 181.666V178.333C144.75 178.187 144.711 178.043 144.638 177.917C144.565 177.79 144.46 177.685 144.333 177.612L141.417 175.946C141.29 175.872 141.146 175.834 141 175.834C140.854 175.834 140.71 175.872 140.583 175.946L137.667 177.612C137.54 177.685 137.435 177.79 137.362 177.917C137.289 178.043 137.25 178.187 137.25 178.333V181.666C137.25 181.813 137.289 181.956 137.362 182.083C137.435 182.209 137.54 182.314 137.667 182.387L140.583 184.054C140.71 184.127 140.854 184.166 141 184.166C141.146 184.166 141.29 184.127 141.417 184.054L144.333 182.387C144.46 182.314 144.565 182.209 144.638 182.083C144.711 181.956 144.75 181.813 144.75 181.666Z" stroke="black" stroke-linecap="round" stroke-linejoin="round"/>
<path d="M137.363 177.9L141.001 180.005L144.638 177.9" stroke="black" stroke-linecap="round" stroke-linejoin="round"/>
<path d="M141 184.2V180" stroke="black" stroke-linecap="round" stroke-linejoin="round"/>
</g>
</g>
<defs>
<clipPath id="clip0_268_134">
<rect width="225" height="236" fill="white"/>
</clipPath>
<clipPath id="clip1_268_134">
<rect width="10" height="10" fill="white" transform="translate(137 118)"/>
</clipPath>
<clipPath id="clip2_268_134">
<rect width="10" height="10" fill="white" transform="translate(137 146)"/>
</clipPath>
<clipPath id="clip3_268_134">
<rect width="10" height="10" fill="white" transform="translate(136 175)"/>
</clipPath>
</defs>
</svg>
